<?xml version="1.0"?>
<svg xmlns="http://www.w3.org/2000/svg" height="512px" viewBox="0 -61 512.00069 512" width="512px" class=""><g><path d="m256 0c-105.90625 0-195.75 67.003906-251.636719 123.207031-5.84375 5.875-5.8125 15.367188.0625 21.210938 5.902344 5.859375 15.394531 5.816406 21.210938-.058594 51.867187-52.175781 134.765625-114.359375 230.363281-114.359375s178.496094 62.183594 230.363281 114.359375c5.832031 5.863281 15.324219 5.917969 21.214844.058594 5.871094-5.84375 5.902344-15.335938.058594-21.210938-55.886719-56.203125-145.730469-123.207031-251.636719-123.207031zm0 0" data-original="#000000" class="active-path" data-old_color="#000000" fill="#939890"/><path d="m256 150c-41.351562 0-75 33.648438-75 75s33.648438 75 75 75 75-33.648438 75-75-33.648438-75-75-75zm0 120c-24.8125 0-45-20.1875-45-45s20.1875-45 45-45 45 20.1875 45 45-20.183594 45-45 45zm0 0" data-original="#000000" class="active-path" data-old_color="#000000" fill="#939890"/><path d="m256 60c-138.660156 0-248.617188 149.882812-253.1875 156.269531-3.75 5.214844-3.75 12.246094 0 17.460938 4.570312 6.386719 114.527344 156.269531 253.1875 156.269531 138.664062 0 248.617188-149.882812 253.1875-156.269531 3.75-5.214844 3.75-12.246094 0-17.460938-4.570312-6.386719-114.523438-156.269531-253.1875-156.269531zm0 270c-57.890625 0-105-47.109375-105-105s47.109375-105 105-105 105 47.109375 105 105-47.109375 105-105 105zm0 0" data-original="#000000" class="active-path" data-old_color="#000000" fill="#939890"/><path d="m256 210c-8.277344 0-15 6.722656-15 15s6.722656 15 15 15 15-6.722656 15-15-6.722656-15-15-15zm0 0" data-original="#000000" class="active-path" data-old_color="#000000" fill="#939890"/></g> </svg>
